<svg xmlns="http://www.w3.org/2000/svg" enable-background="new 0 0 50 50" viewBox="0 0 50 50" id="crown"><path d="M6.9 44.2h36.2c.6 0 1.1-.5 1.1-1.1v-2.7H5.8v2.7C5.8 43.8 6.3 44.2 6.9 44.2zM46 12.2c-1.7 0-3 1.3-3 3 0 .8.3 1.6.9 2.1l-9 9.2-8.5-15.2c.9-.5 1.5-1.5 1.5-2.6 0-1.7-1.3-3-3-3s-3 1.3-3 3c0 1.1.6 2.1 1.5 2.6l-8.5 15.2-9-9.2C6.7 16.8 7 16 7 15.2c0-1.7-1.3-3-3-3s-3 1.3-3 3c0 1.7 1.3 3 3 3 .1 0 .2 0 .2 0l1.6 20.4h38.4l1.6-20.4c.1 0 .2 0 .2 0 1.7 0 3-1.3 3-3C49 13.6 47.7 12.2 46 12.2z"></path></svg>